<?xml version="1.0"?>

<!DOCTYPE svg PUBLIC '-//W3C//DTD SVG 1.0//EN' 'http://www.w3.org/TR/2001/REC-SVG-20010904/DTD/svg10.dtd'>
<svg fill-opacity="1" xmlns:xlink="http://www.w3.org/1999/xlink" color-rendering="auto" color-interpolation="auto" text-rendering="auto" stroke="black" stroke-linecap="square" stroke-miterlimit="10" shape-rendering="auto" stroke-opacity="1" fill="black" stroke-dasharray="none" font-weight="normal" stroke-width="1" xmlns="http://www.w3.org/2000/svg" font-family="&apos;Dialog&apos;" font-style="normal" stroke-linejoin="miter" font-size="12" stroke-dashoffset="0" image-rendering="auto">
  <!--Unicode Character 'ELECTRIC LIGHT BULB' (U+1F4A1)-->
  <defs id="genericDefs" />
  <g>
    <g>
      <path d="M279.2812 170.8594 L240.1875 195.6094 Q238.0781 193.5 233.7188 185.9062 L272.9531 160.7344 Q273.0938 160.875 279.2812 170.8594 ZM286.875 239.7656 L242.7188 239.7656 L242.7188 227.8125 L286.875 227.8125 L286.875 239.7656 ZM279.2812 296.8594 L273.375 306.9844 L233.7188 282.6562 Q234.9844 279.8438 239.7656 272.1094 L279.2812 296.8594 ZM64.6875 185.4844 Q62.7188 188.8594 58.6406 195.6094 L19.125 170.8594 Q23.0625 164.25 25.0312 160.7344 L64.6875 185.4844 ZM226.5469 236.1094 Q226.5469 249.6094 222.1875 260.7188 Q220.7812 264.6562 211.2188 283.0781 Q203.3438 298.4062 199.9688 307.6875 Q197.2969 315.1406 196.7344 324.5625 Q196.7344 329.0625 196.0312 338.0625 Q195.4688 341.0156 192.5156 346.9219 Q189.9844 351.9844 189.9844 355.9219 Q189.9844 358.7344 188.7188 360.4219 Q189.8438 364.0781 189.8438 364.7812 Q189.8438 365.625 189.2109 367.0312 Q188.5781 368.4375 188.5781 369.2812 Q188.5781 369.9844 188.9297 371.3203 Q189.2812 372.6562 189.2812 373.3594 Q189.2812 381.0938 188.4375 386.2969 Q187.4531 392.625 181.125 397.5469 Q179.2969 398.9531 169.3125 404.7188 Q167.625 405.8438 164.25 407.8125 Q162.7031 408.0938 159.75 409.0781 Q159.0469 409.7812 157.0781 411.0469 Q156.6562 411.1875 149.2031 411.1875 Q141.75 411.1875 141.3281 411.0469 Q140.4844 410.3438 138.6562 409.0781 Q137.1094 408.7969 134.1562 407.8125 Q131.4844 405.9844 126.1406 402.75 Q122.2031 400.6406 118.2656 398.4609 Q114.3281 396.2812 111.7969 392.7656 Q109.6875 389.8125 109.6875 382.2188 Q109.6875 381.5156 109.4062 380.1094 Q109.125 378.7031 109.125 378 Q109.125 377.1562 109.4062 375.4688 Q109.6875 373.7812 109.6875 372.9375 Q109.6875 371.9531 109.125 370.2656 Q108.5625 368.5781 108.5625 367.5938 Q108.5625 366.6094 108.9141 364.6406 Q109.2656 362.6719 109.2656 361.6875 Q109.2656 355.9219 107.8594 351.4219 Q106.875 349.875 105.0469 346.6406 Q103.0781 342.7031 102.375 338.0625 Q102.2344 328.5 99 309.9375 Q95.0625 298.5469 89.1562 287.0156 Q77.4844 263.9531 76.9219 262.8281 Q71.8594 250.3125 71.8594 236.1094 Q71.8594 202.6406 94.0781 183.0938 Q115.1719 164.6719 149.2031 164.6719 Q183.375 164.6719 204.3281 183.0938 Q226.5469 202.5 226.5469 236.1094 ZM55.6875 239.7656 L11.5312 239.7656 L11.5312 227.8125 L55.6875 227.8125 L55.6875 239.7656 ZM64.6875 282.0938 L25.4531 306.9844 Q23.3438 303.75 19.125 297.2812 L58.6406 272.1094 Q60.75 275.3438 64.6875 282.0938 ZM216.2812 234.7031 Q216.2812 205.4531 197.0156 188.8594 Q178.875 173.25 149.2031 173.25 Q119.5312 173.25 101.3906 189 Q82.125 205.5938 82.125 234.7031 Q82.125 247.2188 86.625 257.9062 Q87.8906 260.8594 97.5938 278.5781 Q105.0469 292.2188 108.7734 302.625 Q112.5 313.0312 112.5 334.4062 Q112.5 341.1562 117.5625 344.8125 Q121.5 347.625 149.2031 347.625 Q175.7812 347.625 180.8438 344.8125 Q184.9219 342.5625 185.7656 334.8281 Q185.9062 333.4219 185.9062 322.7344 Q185.9062 322.875 186.6094 317.3906 Q187.875 307.6875 190.6875 299.9531 Q191.9531 296.5781 206.5781 268.5938 Q216.2812 250.1719 216.2812 234.7031 ZM179.5781 350.2969 L178.0312 350.2969 Q173.25 350.2969 163.6172 351 Q153.9844 351.7031 149.2031 351.7031 Q144.4219 351.7031 134.7188 351 Q125.0156 350.2969 120.2344 350.2969 L118.8281 350.2969 L118.8281 355.3594 Q118.8281 356.2031 120.375 358.3828 Q121.9219 360.5625 121.9219 361.8281 Q121.9219 362.6719 120.5859 363.6562 Q119.25 364.6406 119.25 365.3438 Q119.25 365.9062 120.5859 367.5234 Q121.9219 369.1406 121.9219 369.9844 Q121.9219 370.6875 120.7969 372.3047 Q119.6719 373.9219 119.6719 374.625 Q119.6719 375.3281 120.7969 376.6641 Q121.9219 378 121.9219 378.7031 Q121.9219 379.4062 121.0078 380.8125 Q120.0938 382.2188 120.0938 382.9219 Q120.0938 384.1875 127.9688 389.6719 Q135.2812 394.875 137.6719 395.7188 Q139.7812 396 141.8906 396.4219 Q144.7031 396.8438 144.8438 398.3906 Q146.5312 398.5312 149.2031 398.5312 Q151.875 398.5312 153.4219 398.3906 Q154.9688 396.4219 158.0625 396.4219 Q160.1719 396.4219 168.1875 391.5 Q175.7812 386.8594 177.6094 384.75 Q178.3125 383.9062 178.3125 381.6562 Q178.3125 380.8125 177.3984 379.2656 Q176.4844 377.7188 176.4844 376.875 Q176.4844 376.1719 177.6094 374.5547 Q178.7344 372.9375 178.7344 372.2344 Q178.7344 371.5312 177.6094 369.7734 Q176.4844 368.0156 176.4844 367.3125 Q176.4844 366.75 177.75 364.9922 Q179.0156 363.2344 179.1562 362.5312 Q178.3125 361.8281 176.4844 360.2812 L176.4844 359.0156 Q176.4844 357.6094 178.0312 355.3594 Q179.5781 353.1094 179.5781 350.2969 Z" stroke="none" />
    </g>
  </g>
</svg>
