<svg width="48" height="48" viewBox="0 0 32 32" fill="none" xmlns="http://www.w3.org/2000/svg"><path d="M27.9999 0.599854H3.99985C3.09877 0.601966 2.23519 0.960858 1.59802 1.59802C0.960858 2.23519 0.601966 3.09877 0.599854 3.99985V23.1999C0.609135 23.9187 0.846598 24.6161 1.27797 25.1913C1.70934 25.7664 2.31231 26.1897 2.99985 26.3999V27.9999C3.00197 28.9009 3.36086 29.7645 3.99802 30.4017C4.63519 31.0388 5.49877 31.3977 6.39985 31.3999H25.5999C26.5009 31.3977 27.3645 31.0388 28.0017 30.4017C28.6388 29.7645 28.9977 28.9009 28.9999 27.9999V26.3999C29.6874 26.1897 30.2904 25.7664 30.7217 25.1913C31.1531 24.6161 31.3906 23.9187 31.3999 23.1999V3.99985C31.3977 3.09877 31.0388 2.23519 30.4017 1.59802C29.7645 0.960858 28.9009 0.601966 27.9999 0.599854V0.599854ZM26.9999 27.9999C26.9978 28.3705 26.8496 28.7254 26.5875 28.9875C26.3254 29.2496 25.9705 29.3978 25.5999 29.3999H6.39985C6.0292 29.3978 5.67432 29.2496 5.41222 28.9875C5.15013 28.7254 5.00195 28.3705 4.99985 27.9999V26.5999H26.9999V27.9999ZM29.3999 23.1999C29.3978 23.5705 29.2496 23.9254 28.9875 24.1875C28.7254 24.4496 28.3705 24.5978 27.9999 24.5999H3.99985C3.6292 24.5978 3.27432 24.4496 3.01222 24.1875C2.75013 23.9254 2.60195 23.5705 2.59985 23.1999V3.99985C2.60195 3.6292 2.75013 3.27432 3.01222 3.01222C3.27432 2.75013 3.6292 2.60195 3.99985 2.59985H27.9999C28.3705 2.60195 28.7254 2.75013 28.9875 3.01222C29.2496 3.27432 29.3978 3.6292 29.3999 3.99985V23.1999Z" fill="#1D1C1D"/><path d="M9.94386 6.19189H6.06386C5.67505 6.19189 5.35986 6.50709 5.35986 6.89589V10.7759C5.35986 11.1647 5.67505 11.4799 6.06386 11.4799H9.94386C10.3327 11.4799 10.6479 11.1647 10.6479 10.7759V6.89589C10.6479 6.50709 10.3327 6.19189 9.94386 6.19189Z" fill="#1D1C1D"/><path d="M9.94386 15.7119H6.06386C5.67505 15.7119 5.35986 16.0271 5.35986 16.4159V20.2959C5.35986 20.6847 5.67505 20.9999 6.06386 20.9999H9.94386C10.3327 20.9999 10.6479 20.6847 10.6479 20.2959V16.4159C10.6479 16.0271 10.3327 15.7119 9.94386 15.7119Z" fill="#1D1C1D"/><path d="M14.0959 17.408H24.1359C24.4012 17.408 24.6555 17.3026 24.8431 17.1151C25.0306 16.9275 25.1359 16.6732 25.1359 16.408C25.1359 16.1427 25.0306 15.8884 24.8431 15.7009C24.6555 15.5133 24.4012 15.408 24.1359 15.408H14.0959C13.8307 15.408 13.5764 15.5133 13.3888 15.7009C13.2013 15.8884 13.0959 16.1427 13.0959 16.408C13.0959 16.6732 13.2013 16.9275 13.3888 17.1151C13.5764 17.3026 13.8307 17.408 14.0959 17.408Z" fill="#1D1C1D"/><path d="M25.5039 19.312H14.0959C13.8307 19.312 13.5764 19.4174 13.3888 19.6049C13.2013 19.7924 13.0959 20.0468 13.0959 20.312C13.0959 20.5772 13.2013 20.8316 13.3888 21.0191C13.5764 21.2067 13.8307 21.312 14.0959 21.312H25.5039C25.7692 21.312 26.0235 21.2067 26.2111 21.0191C26.3986 20.8316 26.5039 20.5772 26.5039 20.312C26.5039 20.0468 26.3986 19.7924 26.2111 19.6049C26.0235 19.4174 25.7692 19.312 25.5039 19.312V19.312Z" fill="#1D1C1D"/><path d="M14.0959 7.88794H24.1359C24.4012 7.88794 24.6555 7.78258 24.8431 7.59505C25.0306 7.40751 25.1359 7.15316 25.1359 6.88794C25.1359 6.62272 25.0306 6.36837 24.8431 6.18083C24.6555 5.9933 24.4012 5.88794 24.1359 5.88794H14.0959C13.8307 5.88794 13.5764 5.9933 13.3888 6.18083C13.2013 6.36837 13.0959 6.62272 13.0959 6.88794C13.0959 7.15316 13.2013 7.40751 13.3888 7.59505C13.5764 7.78258 13.8307 7.88794 14.0959 7.88794Z" fill="#1D1C1D"/><path d="M25.5039 9.79199H14.0959C13.8307 9.79199 13.5764 9.89735 13.3888 10.0849C13.2013 10.2724 13.0959 10.5268 13.0959 10.792C13.0959 11.0572 13.2013 11.3116 13.3888 11.4991C13.5764 11.6866 13.8307 11.792 14.0959 11.792H25.5039C25.7692 11.792 26.0235 11.6866 26.2111 11.4991C26.3986 11.3116 26.5039 11.0572 26.5039 10.792C26.5039 10.5268 26.3986 10.2724 26.2111 10.0849C26.0235 9.89735 25.7692 9.79199 25.5039 9.79199V9.79199Z" fill="#1D1C1D"/></svg>